# xmcd
#
# Track frame offsets:
#	150
#	5527
#	24418
#	42232
#	58890
#	77101
#	94056
#	118119
#	143395
#	163066
#	177318
#	192187
#	211940
#
# Disc length: 3014 seconds
#
# Revision: 3
# Processed by: cddbd v1.5.2PL0 Copyright (c) Steve Scherf et al.
# Submitted via: EasyCDDAExtractor 16.0.6.1
#
DISCID=a90bc40d
DTITLE=Vargas Blues Band - R-676 Blues Latino
DYEAR=1900
DGENRE=Blues
TTITLE0=Intro
TTITLE1=Rock away the blues
TTITLE2=Coward's knife
TTITLE3=Brand new blues
TTITLE4=Out of the blue
TTITLE5=Hot wires
TTITLE6=Do you belive in love?
TTITLE7=Blues latino
TTITLE8=Magic of the gods
TTITLE9=Amapola negra
TTITLE10=Fear
TTITLE11=Mexico city blues
TTITLE12=Pachuco Boogie/Jeff's Boogie
EXTD=
EXTT0=
EXTT1=
EXTT2=
EXTT3=
EXTT4=
EXTT5=
EXTT6=
EXTT7=
EXTT8=
EXTT9=
EXTT10=
EXTT11=
EXTT12=
PLAYORDER=
